<svg xmlns="http://www.w3.org/2000/svg" viewBox="0 0 1200 630" fill="none">
  <defs>
    <linearGradient id="trendLine" x1="0" y1="0" x2="0" y2="1">
      <stop offset="0%" stop-color="#10B981" stop-opacity="0.3"/>
      <stop offset="100%" stop-color="#10B981" stop-opacity="0.02"/>
    </linearGradient>
  </defs>
  <rect width="1200" height="630" fill="#1E293B"/>
  <rect x="40" y="40" width="1120" height="550" rx="16" fill="#2d384a" stroke="#10B981" stroke-opacity="0.15"/>
  <text x="100" y="100" fill="#10B981" font-family="sans-serif" font-size="28" font-weight="700">Market Intelligence</text>
  <text x="100" y="135" fill="rgba(250,250,250,0.5)" font-family="sans-serif" font-size="16">Trend analysis and industry signals</text>
  <path d="M 160,380 C 300,370 500,300 650,250 S 900,170 1060,140 L 1060,420 L 160,420 Z" fill="url(#trendLine)"/>
  <path d="M 160,380 C 300,370 500,300 650,250 S 900,170 1060,140" stroke="#10B981" stroke-width="3" fill="none"/>
  <circle cx="1060" cy="140" r="6" fill="#10B981"/>
  <circle cx="1060" cy="140" r="10" fill="#10B981" opacity="0.2"/>
  <line x1="160" y1="420" x2="1060" y2="420" stroke="#FAFAFA" stroke-opacity="0.1"/>
  <text x="180" y="460" fill="rgba(250,250,250,0.5)" font-family="sans-serif" font-size="12">Q1</text>
  <text x="460" y="460" fill="rgba(250,250,250,0.5)" font-family="sans-serif" font-size="12">Q2</text>
  <text x="740" y="460" fill="rgba(250,250,250,0.5)" font-family="sans-serif" font-size="12">Q3</text>
  <text x="1020" y="460" fill="rgba(250,250,250,0.5)" font-family="sans-serif" font-size="12">Q4</text>
  <text x="1060" y="560" text-anchor="end" fill="rgba(250,250,250,0.5)" font-family="monospace" font-size="11" opacity="0.5">thesellerreport.com</text>
</svg>