<svg xmlns="http://www.w3.org/2000/svg" viewBox="0 0 1200 630" fill="none">
  <rect width="1200" height="630" fill="#1E293B"/>
  <rect x="40" y="40" width="1120" height="550" rx="16" fill="#2d384a" stroke="#10B981" stroke-opacity="0.15"/>
  <text x="100" y="100" fill="#10B981" font-family="sans-serif" font-size="28" font-weight="700">Hiring Dashboard</text>
  <text x="100" y="135" fill="rgba(250,250,250,0.5)" font-family="sans-serif" font-size="16">Active roles and market signals</text>
  <rect x="80" y="170" width="340" height="100" rx="10" fill="#1E293B" stroke="#10B981" stroke-opacity="0.15"/>
  <text x="100" y="210" fill="#10B981" font-family="monospace" font-size="28" font-weight="700">247</text>
  <text x="100" y="245" fill="rgba(250,250,250,0.5)" font-family="sans-serif" font-size="14">Active roles this week</text>
  <rect x="440" y="170" width="340" height="100" rx="10" fill="#1E293B" stroke="#3B82F6" stroke-opacity="0.15"/>
  <text x="460" y="210" fill="#3B82F6" font-family="monospace" font-size="28" font-weight="700">+18%</text>
  <text x="460" y="245" fill="rgba(250,250,250,0.5)" font-family="sans-serif" font-size="14">Week-over-week growth</text>
  <rect x="800" y="170" width="340" height="100" rx="10" fill="#1E293B" stroke="#FAFAFA" stroke-opacity="0.08"/>
  <text x="820" y="210" fill="#FAFAFA" font-family="monospace" font-size="28" font-weight="700">$185K</text>
  <text x="820" y="245" fill="rgba(250,250,250,0.5)" font-family="sans-serif" font-size="14">Median salary posted</text>
  <rect x="80" y="300" width="1040" height="200" rx="10" fill="#1E293B"/>
  <rect x="100" y="330" width="800" height="10" rx="4" fill="#10B981" opacity="0.3"/>
  <rect x="100" y="360" width="650" height="10" rx="4" fill="#10B981" opacity="0.25"/>
  <rect x="100" y="390" width="500" height="10" rx="4" fill="#3B82F6" opacity="0.2"/>
  <rect x="100" y="420" width="400" height="10" rx="4" fill="#3B82F6" opacity="0.15"/>
  <text x="1060" y="560" text-anchor="end" fill="rgba(250,250,250,0.5)" font-family="monospace" font-size="11" opacity="0.5">thesellerreport.com</text>
</svg>