<svg xmlns="http://www.w3.org/2000/svg" viewBox="0 0 1200 630" fill="none">
  <rect width="1200" height="630" fill="#1E293B"/>
  <rect x="40" y="40" width="1120" height="550" rx="16" fill="#2d384a" stroke="#10B981" stroke-opacity="0.15"/>
  <text x="100" y="100" fill="#10B981" font-family="sans-serif" font-size="28" font-weight="700">Tool Comparison</text>
  <text x="100" y="135" fill="rgba(250,250,250,0.5)" font-family="sans-serif" font-size="16">Feature analysis and scoring breakdown</text>
  <rect x="80" y="180" width="320" height="180" rx="12" fill="#1E293B" stroke="#10B981" stroke-opacity="0.2"/>
  <rect x="440" y="180" width="320" height="180" rx="12" fill="#1E293B" stroke="#3B82F6" stroke-opacity="0.2"/>
  <rect x="800" y="180" width="320" height="180" rx="12" fill="#1E293B" stroke="#FAFAFA" stroke-opacity="0.1"/>
  <rect x="100" y="220" width="180" height="12" rx="4" fill="#10B981" opacity="0.8"/>
  <rect x="100" y="250" width="140" height="12" rx="4" fill="#10B981" opacity="0.5"/>
  <rect x="100" y="280" width="200" height="12" rx="4" fill="#10B981" opacity="0.65"/>
  <rect x="460" y="220" width="160" height="12" rx="4" fill="#3B82F6" opacity="0.7"/>
  <rect x="460" y="250" width="200" height="12" rx="4" fill="#3B82F6" opacity="0.5"/>
  <rect x="460" y="280" width="120" height="12" rx="4" fill="#3B82F6" opacity="0.6"/>
  <rect x="820" y="220" width="190" height="12" rx="4" fill="#FAFAFA" opacity="0.2"/>
  <rect x="820" y="250" width="150" height="12" rx="4" fill="#FAFAFA" opacity="0.15"/>
  <rect x="820" y="280" width="170" height="12" rx="4" fill="#FAFAFA" opacity="0.18"/>
  <rect x="80" y="400" width="1040" height="120" rx="10" fill="#1E293B"/>
  <text x="100" y="440" fill="#FAFAFA" font-family="sans-serif" font-size="15" font-weight="600">Key Differentiators</text>
  <rect x="100" y="460" width="280" height="8" rx="3" fill="#10B981" opacity="0.4"/>
  <rect x="100" y="480" width="220" height="8" rx="3" fill="#3B82F6" opacity="0.3"/>
  <text x="1060" y="560" text-anchor="end" fill="rgba(250,250,250,0.5)" font-family="monospace" font-size="11" opacity="0.5">thesellerreport.com</text>
</svg>